<?xml version="1.0" encoding="utf-8"?>
<!-- Generator: Adobe Illustrator 24.3.0, SVG Export Plug-In . SVG Version: 6.00 Build 0)  -->
<svg version="1.1" id="Layer_1" xmlns="http://www.w3.org/2000/svg" xmlns:xlink="http://www.w3.org/1999/xlink" x="0px" y="0px"
	 viewBox="0 0 473.7 202.4" style="enable-background:new 0 0 473.7 202.4;" xml:space="preserve">
<style type="text/css">
	.st0{fill:#0C4D87;}
	.st1{fill:#F1F2F2;}
	.st2{font-family:'AurelisADFNo2Std-Bold';}
	.st3{font-size:87.1275px;}
</style>
<image style="overflow:visible;" width="412" height="476" xlink:href="../../Logo.png"  transform="matrix(0.4251 0 0 0.4251 0 0)">
</image>
<g>
	<path class="st0" d="M200.5,62.1c0,0,9.9-0.1,28.8,0.4c11.4,1.8,10.6,7.1,10.6,7.1l14.1-7.4c6.1,0.7,12.1,5,12.4,10.4
		c0.3,5.4,0,16.2,0,16.2s3.2-4,8.9-3.6c4.1,0.3,7.8,5.2,7.8,5.2s1.7-4.9,11.3-5.1c6.8-0.1,8.8,9.1,8.8,9.1s6-8,15.4-8.2
		c11.6-0.2,14.3,2.2,18.5,5.1c0,0,8.9-5,15.5-4.5c8.1,0.5,12.2,4.8,12.2,4.8l-0.3-7.7h-4.9c0,0,5.4-11.6,16.8-11.4
		c7.6,0.1,9.6,10.3,9.2,14.5c-0.4,4.2,8.5,3.1,10.9,1.6c3.7-2.2,11.6-5.4,19-1.1c7.4,4.2,11.4,1.6,19-1.3c0,0,8.9-1.6,14.5,1.1V74.8
		h-5.8c0,0,6.9-13.6,17.9-14.3c10.9-0.7,12.1,8.9,12.1,25s-1.9,37.4,0,39.3s-2.2,12.1-10.9,12.1c-8.6,0-10.5-6.3-10.5-6.3
		s-9.2,7.2-16.5,6.5c-5.1-0.5-13.3-4.8-13-6.5c0.4-1.9-9.6,7.2-20.1,6.7c-6.5-0.3-13.6-6.7-13.6-6.7s-5.6,7.2-10.7,6.7
		c-4.3-0.4-11.6-6.7-11.6-6.7s-7.8,7-14.5,6.7c-6.7-0.3-15.9-6.7-15.9-6.7s-6.5,7.2-20,6.7c0,0-10.3-3.4-12.1-5.8
		c0,0-2.2,2.1-10.7,4.5c0,0-8.5,2.9-17.4,0.2c-7.3-2.2-10.5-5.6-10.5-5.6s-5.1,8.2-11.2,7.1c-6-1.1-10.5-7.1-10.5-7.1
		s-4.7,7.2-23.5,7.2s-29.3,0-29.3,0s3.1-14.4,3.4-17.9c0.8-11.4,1.6-38.9-0.4-43.1l-2.9-14.5L200.5,62.1z"/>
	<text transform="matrix(0.9 0 0 1 197.5946 129.4519)" class="st1 st2 st3">Bluesteel</text>
	<path class="st0" d="M254,62.3c0,0-6-0.5-14.1,7.4"/>
</g>
</svg>
